<svg width="80" height="80" viewBox="0 0 80 80" fill="none" xmlns="http://www.w3.org/2000/svg">
<path d="M77.5 55.625C77.5 70.625 63.875 77.5 40.25 77.5C16.5 77.5 3 70.625 3 55.625C3 33.625 77.5 33.625 77.5 55.625Z" fill="#E7A74F"/>
<path d="M77.25 45.25C77.25 60.25 63.75 67.125 40.125 67.125C16.625 67.125 3 60.25 3 45.25C3.125 23.375 77.25 23.375 77.25 45.25Z" fill="#BA8443"/>
<path d="M3 45.625C3 39.375 10.375 30.75 40.25 30.75C70.125 30.75 77.5 39.5 77.5 45.625C77.5 57 67 65.25 40.25 65.25C13.5 65.25 3 57 3 45.625Z" fill="#826046"/>
<path d="M3.75 39.125C3.75 32.875 11 24.25 40.25 24.25C69.5 24.25 76.75 33 76.75 39.125C76.75 50.5 66.5 58.75 40.25 58.75C14 58.75 3.75 50.5 3.75 39.125Z" fill="#68472C"/>
<path d="M4 31C5.75 27.25 10.375 27 25.375 33.375C40.375 39.75 43.25 43.125 41.5 47C38.25 53.875 29.375 59 15.875 53.25C2.375 47.5 0.624999 38 4 31Z" fill="#EF4D3C"/>
<path d="M5.25 26.75C7 23 11.625 22.75 26.625 29.125C41.625 35.5 44.5 38.875 42.75 42.75C39.5 49.625 30.625 54.75 17.125 49C3.625 43.25 1.875 33.625 5.25 26.75Z" fill="#D33B23"/>
<path d="M36.625 43.125C35.625 39.125 39.125 36.25 55.25 32.75C71.375 29.25 75.75 30.25 76.75 34.375C78.625 41.75 74.875 50.875 60.375 54C46 57.125 38.375 50.5 36.625 43.125Z" fill="#EF4D3C"/>
<path d="M35 39.125C34 35.125 37.5 32.25 53.625 28.75C69.75 25.25 74.125 26.25 75.125 30.375C77 37.75 73.25 46.875 58.75 50C44.375 53.125 36.875 46.5 35 39.125Z" fill="#D33B23"/>
<path d="M12.125 38.625L37.125 62.625L61.625 38.625H12.125Z" fill="#FFE62E"/>
<path d="M75.875 32.375C75.875 32.375 77 36.625 75.875 37.875C74.875 39 71.75 37.75 70.375 38.75C69.125 39.625 69.5 43 68 43.75C66.625 44.5 64 42.375 62.5 43C61.125 43.5 60.625 46.875 59.125 47.375C57.625 47.75 55.375 45.25 53.875 45.5C52.375 45.75 51.375 49 49.75 49.25C48.25 49.5 46.375 46.625 44.75 46.75C43.25 46.875 41.75 49.875 40.125 49.875C38.5 49.875 37.125 46.75 35.5 46.75C33.875 46.625 32.125 49.5 30.5 49.25C28.875 49 27.875 45.875 26.375 45.5C24.75 45.125 22.625 47.75 21.125 47.375C19.625 46.875 19.125 43.625 17.75 43C16.25 42.375 13.5 44.5 12.25 43.75C10.75 43 11.125 39.625 9.875 38.75C8.5 37.75 5.375 39 4.375 37.875C3.25 36.625 4.375 32.375 4.375 32.375H75.875Z" fill="#8CC63E"/>
<path d="M77.5 29.25C77.5 37.375 60.875 41.375 40.25 41.375C19.625 41.375 3 37.375 3 29.25C3 14.5 19.625 2.5 40.25 2.5C60.875 2.5 77.5 14.5 77.5 29.25Z" fill="#E7A74F"/>
<path d="M20.375 18L18.375 19.875L16.5 18L18.375 16.125L20.375 18Z" fill="#FFC17A"/>
<path d="M29.625 15L27.75 16.875L25.875 15L27.75 13.125L29.625 15Z" fill="#FFC17A"/>
<path d="M35 23.5L33 25.375L31.125 23.5L33 21.625L35 23.5Z" fill="#FFC17A"/>
<path d="M41.5 16.75L40.25 18L39 16.75L40.25 15.5L41.5 16.75Z" fill="#FFC17A"/>
<path d="M64.875 21.625L63.625 22.875L62.375 21.625L63.625 20.375L64.875 21.625Z" fill="#FFC17A"/>
<path d="M72.625 22.875L71.375 24.125L70.125 22.875L71.375 21.625L72.625 22.875Z" fill="#FFC17A"/>
<path d="M58 13.75L56.75 15L55.5 13.75L56.75 12.5L58 13.75Z" fill="#FFC17A"/>
<path d="M19.875 12.125L18.625 13.375L17.375 12.125L18.625 10.875L19.875 12.125Z" fill="#FFC17A"/>
<path d="M13.125 18L11.875 19.25L10.625 18L11.875 16.75L13.125 18Z" fill="#FFC17A"/>
<path d="M21 26.375L19.75 27.625L18.375 26.375L19.75 25.125L21 26.375Z" fill="#FFC17A"/>
<path d="M35.625 7.125L34.375 8.375L33 7.125L34.375 5.875L35.625 7.125Z" fill="#FFC17A"/>
<path d="M47.5 5.875L46.25 7.125L45 5.875L46.25 4.625L47.5 5.875Z" fill="#FFC17A"/>
<path d="M27.75 8.375L26.5 9.625L25.25 8.375L26.5 7.125L27.75 8.375Z" fill="#FFC17A"/>
<path d="M63.625 11.375L62.375 12.625L61.125 11.375L62.375 10.125L63.625 11.375Z" fill="#FFC17A"/>
<path d="M50 27.125L48.125 29L46.25 27.125L48.125 25.25L50 27.125Z" fill="#FFC17A"/>
<path d="M47 17.5L45.125 19.375L43.25 17.5L45.125 15.625L47 17.5Z" fill="#FFC17A"/>
<path d="M54 10.25L52.125 12.125L50.25 10.25L52.125 8.375L54 10.25Z" fill="#FFC17A"/>
<path d="M59.5 18.375L57.625 20.25L55.625 18.375L57.625 16.5L59.5 18.375Z" fill="#FFC17A"/>
<path d="M67.5 15.625L65.625 17.5L63.625 15.625L65.625 13.75L67.5 15.625Z" fill="#FFC17A"/>
<path d="M61.375 26.625L59.5 28.5L57.625 26.625L59.5 24.75L61.375 26.625Z" fill="#FFC17A"/>
<path d="M15.625 23.375L13.75 25.25L11.875 23.375L13.75 21.5L15.625 23.375Z" fill="#FFC17A"/>
</svg>
