<svg width="54" height="48" viewBox="0 0 54 48" fill="none" xmlns="http://www.w3.org/2000/svg">
<path d="M51.0762 34.127H16.1836L17.9355 30.5586L47.0449 30.5059C48.0293 30.5059 48.873 29.8027 49.0488 28.8301L53.0801 6.26562C53.1855 5.67383 53.0273 5.06445 52.6406 4.60156C52.4495 4.37375 52.2111 4.19024 51.942 4.06377C51.6728 3.9373 51.3794 3.87089 51.082 3.86914L14.0508 3.74609L13.7344 2.25781C13.5352 1.30859 12.6797 0.617188 11.707 0.617188H2.6543C2.10573 0.617188 1.57964 0.835103 1.19175 1.223C0.803853 1.61089 0.585938 2.13698 0.585938 2.68555C0.585938 3.23411 0.803853 3.7602 1.19175 4.1481C1.57964 4.53599 2.10573 4.75391 2.6543 4.75391H10.0312L11.4141 11.3281L14.8184 27.8105L10.4355 34.9648C10.2079 35.272 10.0709 35.6368 10.0398 36.0179C10.0087 36.3989 10.0849 36.7811 10.2598 37.1211C10.6113 37.8184 11.3203 38.2578 12.1055 38.2578H15.7852C15.0007 39.2997 14.577 40.5688 14.5781 41.873C14.5781 45.1895 17.2734 47.8848 20.5898 47.8848C23.9062 47.8848 26.6016 45.1895 26.6016 41.873C26.6016 40.5664 26.168 39.2949 25.3945 38.2578H34.834C34.0495 39.2997 33.6258 40.5688 33.6269 41.873C33.6269 45.1895 36.3223 47.8848 39.6387 47.8848C42.9551 47.8848 45.6504 45.1895 45.6504 41.873C45.6504 40.5664 45.2168 39.2949 44.4434 38.2578H51.082C52.2188 38.2578 53.1504 37.332 53.1504 36.1895C53.147 35.6415 52.927 35.1171 52.5384 34.7307C52.1498 34.3443 51.6242 34.1273 51.0762 34.127ZM14.9121 7.82422L48.6504 7.93555L45.3457 26.4395L18.8437 26.4863L14.9121 7.82422ZM20.5898 43.7246C19.5703 43.7246 18.7383 42.8926 18.7383 41.873C18.7383 40.8535 19.5703 40.0215 20.5898 40.0215C21.6094 40.0215 22.4414 40.8535 22.4414 41.873C22.4414 42.3641 22.2463 42.8351 21.8991 43.1823C21.5519 43.5295 21.0809 43.7246 20.5898 43.7246ZM39.6387 43.7246C38.6191 43.7246 37.7871 42.8926 37.7871 41.873C37.7871 40.8535 38.6191 40.0215 39.6387 40.0215C40.6582 40.0215 41.4902 40.8535 41.4902 41.873C41.4902 42.3641 41.2952 42.8351 40.9479 43.1823C40.6007 43.5295 40.1297 43.7246 39.6387 43.7246Z" fill="#FF4445"/>
</svg>
