<svg width="79" height="79" viewBox="0 0 79 79" fill="none" xmlns="http://www.w3.org/2000/svg">
<path d="M79 69.125H9.875V64.1875H74.0625V29.625H79V69.125Z" fill="#0D6239"/>
<path d="M64.1875 19.75V54.3125H4.9375V19.75H64.1875ZM69.125 14.8125H0V59.25H69.125V14.8125Z" fill="#0D6239"/>
<path d="M14.8125 29.625H9.875V44.4375H14.8125V49.375H34.5625C31.2887 49.375 28.1491 48.0745 25.8342 45.7596C23.5192 43.4447 22.2188 40.305 22.2188 37.0312C22.2188 33.7575 23.5192 30.6178 25.8342 28.3029C28.1491 25.988 31.2887 24.6875 34.5625 24.6875H14.8125V29.625Z" fill="#0D6239"/>
<path d="M54.3125 29.625V24.6875H34.5625C37.8363 24.6875 40.9759 25.988 43.2908 28.3029C45.6058 30.6178 46.9062 33.7575 46.9062 37.0312C46.9062 40.305 45.6058 43.4447 43.2908 45.7596C40.9759 48.0745 37.8363 49.375 34.5625 49.375H54.3125V44.4375H59.25V29.625H54.3125Z" fill="#0D6239"/>
</svg>
