<svg width="74" height="47" viewBox="0 0 74 47" fill="none" xmlns="http://www.w3.org/2000/svg">
<path fill-rule="evenodd" clip-rule="evenodd" d="M0 7.83334C0 5.75581 0.974551 3.76337 2.70926 2.29433C4.44397 0.825296 6.79675 0 9.25 0H64.75C67.2033 0 69.556 0.825296 71.2907 2.29433C73.0254 3.76337 74 5.75581 74 7.83334V27.4167H0V7.83334ZM53.1875 11.75C52.5742 11.75 51.986 11.9563 51.5523 12.3236C51.1186 12.6909 50.875 13.189 50.875 13.7083V17.625C50.875 18.1444 51.1186 18.6425 51.5523 19.0098C51.986 19.377 52.5742 19.5833 53.1875 19.5833H62.4375C63.0508 19.5833 63.639 19.377 64.0727 19.0098C64.5064 18.6425 64.75 18.1444 64.75 17.625V13.7083C64.75 13.189 64.5064 12.6909 64.0727 12.3236C63.639 11.9563 63.0508 11.75 62.4375 11.75H53.1875Z" fill="black"/>
<path d="M0 35.25V39.1667C0 41.2442 0.974551 43.2366 2.70926 44.7057C4.44397 46.1747 6.79675 47 9.25 47H64.75C67.2033 47 69.556 46.1747 71.2907 44.7057C73.0254 43.2366 74 41.2442 74 39.1667V35.25H0Z" fill="black"/>
</svg>
