<svg width="80" height="80" viewBox="0 0 80 80" fill="none" xmlns="http://www.w3.org/2000/svg">
<path d="M39.9879 0C17.8897 0 0.00149536 17.912 0.00149536 40.0064C0.00149536 62.1016 17.8897 80 39.9879 80C62.0861 80 79.9991 62.1016 79.9991 40.0056C79.9983 17.912 62.0853 0 39.9879 0ZM40.0063 54.4048C32.0535 54.4048 25.6049 47.9576 25.6049 40.0048C25.6049 32.052 32.0535 25.6048 40.0063 25.6048C47.9599 25.6048 54.4077 32.052 54.4077 40.0048C54.4077 47.9576 47.9599 54.4048 40.0063 54.4048Z" fill="#EAB39C"/>
<path d="M74.4574 29.6928C71.9412 27.468 69.8754 22.8816 69.849 19.512C69.8242 16.1424 67.0911 12.9656 63.79 12.4624C60.4776 11.9576 56.2748 9.23443 54.4459 6.40803C52.6105 3.58163 48.6205 2.39763 45.5618 3.78163C42.5079 5.15923 37.509 5.15923 34.4542 3.78163C31.4003 2.39763 27.4023 3.58163 25.5726 6.40803C23.7436 9.23443 19.5376 11.9584 16.226 12.4624C12.9185 12.9664 10.191 16.1424 10.1654 19.512C10.1398 22.8816 8.06441 27.468 5.55136 29.6928C3.03831 31.924 2.44545 36.084 4.23283 38.9296C6.02581 41.7816 6.73788 46.7688 5.81779 50.016C4.8969 53.256 6.62907 57.072 9.66457 58.5016C12.6969 59.9248 15.9724 63.7344 16.9381 66.9624C17.9038 70.1896 21.4105 72.4608 24.7245 72.008C28.0384 71.5552 32.8357 72.972 35.3831 75.164C37.9274 77.3496 42.0918 77.3496 44.6353 75.164C47.1795 72.9704 51.976 71.5544 55.2931 72.008C58.6103 72.4608 62.113 70.1912 63.0835 66.9624C64.0452 63.7344 67.3215 59.9248 70.3506 58.5016C73.3925 57.072 75.1247 53.2552 74.2006 50.016C73.2765 46.7688 73.995 41.7816 75.7792 38.9296C77.5634 36.0832 76.9729 31.924 74.4574 29.6928ZM40.0068 52.696C33.0533 52.696 27.4159 47.0128 27.4159 40.0032C27.4159 32.9936 33.0533 27.3112 40.0068 27.3112C46.9611 27.3112 52.5993 32.9936 52.5993 40.0032C52.5993 47.0128 46.9619 52.696 40.0068 52.696Z" fill="#955BA5"/>
<path d="M27.8368 25.7304L24.0468 22.7856C23.9226 22.686 23.7799 22.6121 23.6269 22.5681C23.4739 22.5242 23.3136 22.5112 23.1555 22.5298C22.9974 22.5484 22.8446 22.5983 22.706 22.6765C22.5673 22.7547 22.4456 22.8598 22.348 22.9855C22.2503 23.1112 22.1787 23.2551 22.1372 23.4088C22.0957 23.5624 22.0852 23.7228 22.1063 23.8806C22.1274 24.0384 22.1796 24.1904 22.2601 24.3278C22.3405 24.4651 22.4474 24.5851 22.5747 24.6808L26.3654 27.6256C26.4894 27.727 26.6325 27.8026 26.7861 27.8479C26.9398 27.8932 27.1009 27.9073 27.2601 27.8893C27.4193 27.8713 27.5733 27.8216 27.713 27.7432C27.8526 27.6648 27.9752 27.5592 28.0734 27.4327C28.1717 27.3062 28.2436 27.1613 28.2849 27.0065C28.3262 26.8518 28.3362 26.6903 28.3141 26.5316C28.2921 26.373 28.2385 26.2204 28.1565 26.0828C28.0745 25.9451 27.9658 25.8253 27.8368 25.7304ZM65.1245 48.0488C64.8808 47.8442 64.5658 47.7448 64.2488 47.7724C63.9317 47.8 63.6386 47.9523 63.4339 48.196L60.3464 51.8728C60.2452 51.9936 60.1687 52.1331 60.1213 52.2834C60.0739 52.4337 60.0567 52.5919 60.0704 52.7489C60.0842 52.9059 60.1288 53.0587 60.2016 53.1985C60.2744 53.3382 60.3741 53.4623 60.4949 53.5636C60.6156 53.6649 60.7552 53.7414 60.9055 53.7887C61.0559 53.8361 61.2141 53.8533 61.3711 53.8396C61.5281 53.8258 61.6809 53.7812 61.8207 53.7084C61.9605 53.6356 62.0845 53.5359 62.1858 53.4152L65.2717 49.7392C65.4764 49.4955 65.5758 49.1805 65.5482 48.8635C65.5206 48.5465 65.3682 48.2535 65.1245 48.0488ZM63.9108 23.6384C63.9473 23.4852 63.9533 23.3262 63.9284 23.1707C63.9035 23.0151 63.8482 22.866 63.7657 22.7319C63.6832 22.5977 63.575 22.4811 63.4474 22.3887C63.3197 22.2964 63.1752 22.2301 63.0219 22.1936L58.3518 21.0832C58.0422 21.0096 57.7159 21.062 57.4448 21.2288C57.1737 21.3956 56.98 21.6632 56.9061 21.9728C56.833 22.2823 56.8856 22.6082 57.0523 22.879C57.2191 23.1499 57.4865 23.3435 57.7958 23.4176L62.4659 24.528C62.6191 24.5645 62.7781 24.5705 62.9338 24.5455C63.0894 24.5206 63.2385 24.4652 63.3727 24.3826C63.5069 24.3 63.6235 24.1917 63.7158 24.064C63.8082 23.9363 63.8744 23.7917 63.9108 23.6384ZM26.6559 60.5456L21.8858 61.0816C21.7259 61.0949 21.5702 61.1402 21.4281 61.2148C21.286 61.2893 21.1603 61.3917 21.0584 61.5156C20.9565 61.6396 20.8805 61.7828 20.835 61.9367C20.7894 62.0906 20.7751 62.252 20.7931 62.4115C20.811 62.5709 20.8607 62.7252 20.9393 62.8651C21.0179 63.005 21.1238 63.1278 21.2507 63.226C21.3776 63.3243 21.5229 63.3962 21.678 63.4373C21.8331 63.4785 21.9949 63.4881 22.1538 63.4656L26.9239 62.9296C27.0838 62.9162 27.2395 62.8709 27.3816 62.7964C27.5237 62.7218 27.6494 62.6195 27.7513 62.4955C27.8532 62.3715 27.9292 62.2284 27.9748 62.0745C28.0203 61.9206 28.0346 61.7592 28.0166 61.5997C27.9987 61.4402 27.949 61.286 27.8704 61.146C27.7918 61.0061 27.6859 60.8834 27.559 60.7851C27.4321 60.6868 27.2869 60.615 27.1317 60.5739C26.9766 60.5327 26.8148 60.5231 26.6559 60.5456Z" fill="#F29C1F"/>
<path d="M13.6034 42.4048C13.1789 42.4049 12.7718 42.5736 12.4717 42.8738C12.1716 43.1741 12.0031 43.5812 12.0032 44.0056C12.0033 44.4301 12.172 44.8371 12.4723 45.1372C12.7725 45.4372 13.1797 45.6057 13.6042 45.6056C13.8144 45.6056 14.0225 45.5641 14.2166 45.4836C14.4108 45.4032 14.5872 45.2852 14.7358 45.1366C14.8844 44.9879 15.0023 44.8115 15.0826 44.6173C15.163 44.4231 15.2044 44.215 15.2043 44.0048C15.2043 43.7946 15.1628 43.5865 15.0823 43.3924C15.0019 43.1982 14.8839 43.0219 14.7352 42.8733C14.5866 42.7247 14.4101 42.6069 14.2159 42.5265C14.0217 42.4461 13.8136 42.4048 13.6034 42.4048ZM68.8089 40.0056C68.3844 40.0057 67.9773 40.1744 67.6772 40.4746C67.3772 40.7749 67.2086 41.182 67.2087 41.6064C67.2088 42.0309 67.3776 42.4379 67.6778 42.738C67.978 43.038 68.3852 43.2065 68.8097 43.2064C69.2342 43.2063 69.6413 43.0376 69.9413 42.7374C70.2414 42.4372 70.41 42.0301 70.4098 41.6056C70.4097 41.1812 70.241 40.7741 69.9408 40.4741C69.6405 40.174 69.2334 40.0055 68.8089 40.0056Z" fill="#FFC60A"/>
<path d="M63.8564 34.7664C63.6406 34.5324 63.3408 34.3936 63.0227 34.3806C62.7047 34.3675 62.3945 34.4813 62.1602 34.6968L58.6295 37.9488C58.4062 38.1671 58.2768 38.4638 58.2687 38.776C58.2605 39.0881 58.3743 39.3912 58.5859 39.6208C58.7975 39.8505 59.0902 39.9887 59.402 40.0062C59.7138 40.0236 60.0201 39.919 60.256 39.7144L63.7868 36.4624C63.9028 36.3556 63.9966 36.227 64.0628 36.084C64.1291 35.941 64.1665 35.7863 64.173 35.6288C64.1795 35.4713 64.1548 35.3141 64.1005 35.1661C64.0462 35.0181 63.9632 34.8823 63.8564 34.7664ZM14.4979 28.0184C14.1807 28.0455 13.8874 28.1974 13.6823 28.4407C13.4771 28.6841 13.3771 28.9989 13.4042 29.316L13.813 34.0992C13.8222 34.2593 13.8635 34.4159 13.9342 34.5598C14.005 34.7037 14.104 34.832 14.2252 34.937C14.3464 35.042 14.4874 35.1217 14.6399 35.1713C14.7925 35.2209 14.9534 35.2394 15.1132 35.2258C15.273 35.2122 15.4284 35.1666 15.5703 35.0919C15.7122 35.0172 15.8377 34.9148 15.9394 34.7907C16.041 34.6667 16.1168 34.5235 16.1622 34.3697C16.2076 34.2159 16.2217 34.0545 16.2036 33.8952L15.7956 29.112C15.7685 28.7949 15.6166 28.5016 15.3732 28.2965C15.1299 28.0914 14.815 27.9914 14.4979 28.0184ZM32.0052 64.8048C31.795 64.8048 31.5869 64.8463 31.3927 64.9268C31.1986 65.0073 31.0222 65.1252 30.8736 65.2738C30.725 65.4225 30.6071 65.5989 30.5267 65.7931C30.4463 65.9873 30.405 66.1954 30.4051 66.4056C30.4051 66.6158 30.4466 66.8239 30.527 67.018C30.6075 67.2122 30.7255 67.3886 30.8741 67.5371C31.0228 67.6857 31.1993 67.8036 31.3935 67.8839C31.5877 67.9643 31.7958 68.0057 32.006 68.0056C32.4305 68.0055 32.8376 67.8368 33.1377 67.5366C33.4377 67.2364 33.6063 66.8293 33.6062 66.4048C33.6061 65.9803 33.4373 65.5733 33.1371 65.2733C32.8369 64.9732 32.4297 64.8047 32.0052 64.8048ZM35.2055 17.6056C34.9953 17.6056 34.7872 17.6471 34.5931 17.7276C34.3989 17.808 34.2225 17.926 34.0739 18.0746C33.9253 18.2233 33.8074 18.3997 33.7271 18.5939C33.6467 18.7881 33.6053 18.9962 33.6054 19.2064C33.6054 19.4166 33.6469 19.6247 33.7274 19.8188C33.8078 20.013 33.9258 20.1894 34.0744 20.3379C34.2231 20.4865 34.3996 20.6043 34.5938 20.6847C34.788 20.7651 34.9961 20.8064 35.2063 20.8064C35.6308 20.8063 36.0379 20.6376 36.338 20.3374C36.6381 20.0372 36.8066 19.63 36.8065 19.2056C36.8064 18.7811 36.6377 18.3741 36.3374 18.0741C36.0372 17.774 35.63 17.6055 35.2055 17.6056Z" fill="#56C1A6"/>
<path d="M20.2288 48.996L17.1413 52.6728C16.9368 52.9167 16.8375 53.2319 16.8653 53.549C16.8932 53.866 17.0458 54.1591 17.2897 54.3636C17.5337 54.5682 17.8488 54.6674 18.166 54.6396C18.4831 54.6118 18.7762 54.4591 18.9807 54.2152L22.0666 50.5392C22.1712 50.419 22.2508 50.2792 22.3008 50.1278C22.3508 49.9765 22.3701 49.8168 22.3577 49.6579C22.3452 49.499 22.3013 49.3442 22.2284 49.2025C22.1555 49.0608 22.0551 48.9351 21.933 48.8326C21.811 48.7301 21.6697 48.653 21.5176 48.6057C21.3654 48.5584 21.2053 48.5418 21.0467 48.557C20.888 48.5722 20.734 48.6189 20.5936 48.6943C20.4532 48.7696 20.3292 48.8722 20.2288 48.996ZM42.4319 16.1816C42.5621 16.093 42.6736 15.9796 42.7601 15.8479C42.8465 15.7162 42.9061 15.5688 42.9355 15.414C42.9649 15.2593 42.9636 15.1003 42.9315 14.946C42.8995 14.7918 42.8373 14.6454 42.7487 14.5152L40.0476 10.5472C39.8645 10.2939 39.5898 10.122 39.2819 10.0679C38.9741 10.0139 38.6572 10.0821 38.3988 10.2579C38.1404 10.4337 37.9607 10.7033 37.8979 11.0095C37.8351 11.3157 37.8942 11.6343 38.0626 11.8976L40.7629 15.8656C40.9427 16.1283 41.2193 16.3091 41.5321 16.3683C41.8449 16.4276 42.1684 16.3604 42.4319 16.1816ZM41.6062 64.8048C41.396 64.8049 41.1879 64.8463 40.9937 64.9268C40.7995 65.0073 40.6231 65.1252 40.4745 65.2738C40.3259 65.4225 40.2081 65.599 40.1277 65.7931C40.0473 65.9873 40.006 66.1955 40.006 66.4056C40.0061 66.6158 40.0475 66.8239 40.128 67.018C40.2085 67.2122 40.3264 67.3886 40.4751 67.5372C40.6238 67.6857 40.8002 67.8036 40.9944 67.884C41.1886 67.9643 41.3968 68.0057 41.607 68.0056C42.0315 68.0055 42.4385 67.8368 42.7386 67.5366C43.0387 67.2364 43.2072 66.8293 43.2071 66.4048C43.207 65.9804 43.0383 65.5733 42.7381 65.2733C42.4378 64.9732 42.0307 64.8047 41.6062 64.8048ZM27.2047 52.8048C26.7802 52.8049 26.3732 52.9736 26.0731 53.2738C25.773 53.5741 25.6045 53.9812 25.6046 54.4056C25.6047 54.8301 25.7734 55.2371 26.0736 55.5372C26.3739 55.8372 26.781 56.0057 27.2055 56.0056C27.63 56.0055 28.0371 55.8368 28.3372 55.5366C28.6373 55.2364 28.8058 54.8293 28.8057 54.4048C28.8056 53.9804 28.6369 53.5733 28.3366 53.2733C28.0364 52.9732 27.6292 52.8047 27.2047 52.8048ZM26.4046 16.0056C26.4046 15.7954 26.3631 15.5873 26.2827 15.3932C26.2022 15.1991 26.0842 15.0227 25.9356 14.8741C25.7869 14.7255 25.6104 14.6077 25.4162 14.5273C25.222 14.4469 25.0139 14.4056 24.8037 14.4056C24.5935 14.4057 24.3854 14.4471 24.1912 14.5276C23.997 14.6081 23.8206 14.726 23.672 14.8746C23.5235 15.0233 23.4056 15.1997 23.3252 15.3939C23.2448 15.5881 23.2035 15.7962 23.2035 16.0064C23.2036 16.4308 23.3723 16.8377 23.6725 17.1377C23.9727 17.4377 24.3797 17.6061 24.8041 17.606C25.2285 17.6059 25.6354 17.4372 25.9355 17.1371C26.2355 16.837 26.404 16.43 26.4038 16.0056H26.4046ZM58.4079 28.0056C58.1977 28.0057 57.9895 28.0471 57.7954 28.1276C57.6012 28.2081 57.4248 28.326 57.2762 28.4746C57.1276 28.6233 57.0098 28.7998 56.9294 28.9939C56.849 29.1881 56.8076 29.3962 56.8077 29.6064C56.8077 29.8166 56.8492 30.0247 56.9297 30.2188C57.0102 30.413 57.1281 30.5894 57.2768 30.738C57.4254 30.8865 57.6019 31.0044 57.7961 31.0847C57.9903 31.1651 58.1985 31.2065 58.4087 31.2064C58.8331 31.2063 59.2402 31.0376 59.5403 30.7374C59.8404 30.4372 60.0089 30.0301 60.0088 29.6056C60.0087 29.1812 59.84 28.7741 59.5397 28.4741C59.2395 28.174 58.8323 28.0055 58.4079 28.0056Z" fill="#FBF063"/>
<path d="M58.4078 60.8048C57.9833 60.8049 57.5763 60.9736 57.2762 61.2738C56.9761 61.574 56.8076 61.9811 56.8077 62.4056C56.8078 62.83 56.9765 63.237 57.2768 63.5371C57.577 63.8372 57.9841 64.0057 58.4086 64.0056C58.6188 64.0055 58.827 63.9641 59.0211 63.8836C59.2153 63.8031 59.3917 63.6852 59.5403 63.5365C59.6889 63.3879 59.8067 63.2114 59.8871 63.0172C59.9675 62.8231 60.0089 62.6149 60.0088 62.4048C60.0088 62.1946 59.9673 61.9865 59.8868 61.7924C59.8063 61.5982 59.6884 61.4218 59.5397 61.2732C59.3911 61.1247 59.2146 61.0068 59.0204 60.9264C58.8262 60.8461 58.618 60.8047 58.4078 60.8048ZM48.0068 19.2056C47.5824 19.2056 47.1754 19.3741 46.8753 19.6742C46.5752 19.9743 46.4066 20.3812 46.4066 20.8056C46.4066 21.2299 46.5752 21.6369 46.8753 21.9369C47.1754 22.237 47.5824 22.4056 48.0068 22.4056C48.4312 22.4056 48.8382 22.237 49.1383 21.9369C49.4384 21.6369 49.607 21.2299 49.607 20.8056C49.607 20.3812 49.4384 19.9743 49.1383 19.6742C48.8382 19.3741 48.4312 19.2056 48.0068 19.2056Z" fill="#F57E20"/>
<path d="M49.9726 59.2832C49.9416 59.1276 49.8794 58.9799 49.7899 58.8489C49.7003 58.718 49.5851 58.6065 49.4513 58.5212C49.3175 58.436 49.1678 58.3786 49.0113 58.3527C48.8548 58.3268 48.6946 58.3328 48.5404 58.3704C48.2233 58.4456 47.9474 58.6403 47.7703 58.914C47.5932 59.1876 47.5286 59.5191 47.59 59.8392L48.5517 64.6C48.5826 64.7557 48.6446 64.9035 48.7342 65.0345C48.8237 65.1656 48.9389 65.2771 49.0727 65.3625C49.2065 65.4478 49.3562 65.5052 49.5128 65.5312C49.6694 65.5572 49.8296 65.5512 49.9838 65.5136C50.3009 65.4386 50.5768 65.244 50.7539 64.9705C50.931 64.697 50.9956 64.3656 50.9343 64.0456L49.9726 59.2832ZM56.0076 49.6048C55.7974 49.6049 55.5893 49.6463 55.3951 49.7268C55.201 49.8073 55.0245 49.9252 54.8759 50.0738C54.7274 50.2225 54.6095 50.3989 54.5291 50.5931C54.4487 50.7873 54.4074 50.9954 54.4074 51.2056C54.4075 51.4158 54.4489 51.6239 54.5294 51.818C54.6099 52.0122 54.7279 52.1886 54.8765 52.3371C55.0252 52.4857 55.2016 52.6036 55.3959 52.6839C55.5901 52.7643 55.7982 52.8057 56.0084 52.8056C56.4329 52.8055 56.84 52.6368 57.14 52.3366C57.4401 52.0364 57.6087 51.6293 57.6086 51.2048C57.6084 50.7804 57.4397 50.3733 57.1395 50.0733C56.8392 49.7732 56.4321 49.6047 56.0076 49.6048ZM20.8041 36.8056C20.5939 36.8057 20.3858 36.8471 20.1916 36.9276C19.9974 37.0081 19.821 37.126 19.6724 37.2746C19.5238 37.4233 19.406 37.5997 19.3256 37.7939C19.2452 37.9881 19.2039 38.1962 19.2039 38.4064C19.204 38.6166 19.2454 38.8247 19.3259 39.0188C19.4064 39.213 19.5243 39.3894 19.673 39.5379C19.8217 39.6865 19.9981 39.8044 20.1923 39.8847C20.3866 39.9651 20.5947 40.0065 20.8049 40.0064C21.2294 40.0063 21.6364 39.8376 21.9365 39.5374C22.2366 39.2372 22.4051 38.8301 22.405 38.4056C22.4049 37.9812 22.2362 37.5741 21.936 37.2741C21.6357 36.974 21.2286 36.8055 20.8041 36.8056ZM36.8057 58.4048C36.3812 58.4049 35.9741 58.5736 35.674 58.8738C35.3739 59.174 35.2054 59.5812 35.2055 60.0056C35.2056 60.4301 35.3744 60.8371 35.6746 61.1371C35.9748 61.4372 36.382 61.6057 36.8065 61.6056C37.231 61.6055 37.638 61.4368 37.9381 61.1366C38.2382 60.8364 38.4067 60.4293 38.4066 60.0048C38.4065 59.5804 38.2378 59.1733 37.9376 58.8733C37.6373 58.5732 37.2302 58.4047 36.8057 58.4048ZM52.0072 12.0056C51.797 12.0057 51.5889 12.0471 51.3947 12.1276C51.2006 12.2081 51.0241 12.326 50.8755 12.4746C50.727 12.6233 50.6091 12.7997 50.5287 12.9939C50.4483 13.1881 50.407 13.3962 50.407 13.6064C50.4071 13.8166 50.4485 14.0247 50.529 14.2188C50.6095 14.413 50.7275 14.5894 50.8761 14.738C51.0248 14.8865 51.2013 15.0044 51.3955 15.0847C51.5897 15.1651 51.7978 15.2065 52.008 15.2064C52.4325 15.2063 52.8396 15.0376 53.1396 14.7374C53.4397 14.4372 53.6083 14.0301 53.6082 13.6056C53.6081 13.1812 53.4393 12.7741 53.1391 12.4741C52.8388 12.174 52.4317 12.0055 52.0072 12.0056ZM68.8089 30.4056C68.3844 30.4057 67.9773 30.5744 67.6772 30.8746C67.3771 31.1748 67.2086 31.582 67.2087 32.0064C67.2088 32.4309 67.3776 32.8379 67.6778 33.1379C67.978 33.438 68.3852 33.6065 68.8097 33.6064C69.2342 33.6063 69.6412 33.4376 69.9413 33.1374C70.2414 32.8372 70.4099 32.4301 70.4098 32.0056C70.4097 31.5812 70.241 31.1741 69.9408 30.8741C69.6405 30.574 69.2334 30.4055 68.8089 30.4056Z" fill="#6AC9F2"/>
<path d="M41.5881 78.4C19.4898 78.4 1.60166 60.5016 1.60166 38.4064C1.60166 27.7592 5.76367 18.0904 12.5412 10.9224C4.82278 18.2168 0.00149536 28.5448 0.00149536 40.0064C0.00149536 62.1016 17.8897 80 39.9879 80C51.4466 80 61.7733 75.1792 69.0684 67.4624C61.8997 74.2392 52.2331 78.4 41.5881 78.4Z" fill="#D3896D"/>
<path d="M53.3993 39.2032C53.3993 32.1936 47.762 26.5112 40.8069 26.5112C37.1441 26.5112 33.8566 28.0976 31.5563 30.6136C33.7918 28.568 36.7505 27.3112 40.0068 27.3112C46.9611 27.3112 52.5992 32.9936 52.5992 40.0032C52.5992 43.3208 51.3263 46.332 49.2589 48.5928C50.5647 47.4021 51.6075 45.9519 52.3205 44.3351C53.0335 42.7182 53.4009 40.9703 53.3993 39.2032ZM6.35382 28.8928C8.86607 26.668 10.9407 22.0816 10.9679 18.712C10.9815 17.0288 11.6672 15.3944 12.7633 14.1168C11.2127 15.4656 10.183 17.4504 10.1678 19.512C10.1454 22.5528 8.45083 26.5792 6.27381 28.972L6.35382 28.8928ZM26.3742 5.60719C26.5246 5.37519 26.6935 5.15839 26.8719 4.94879C26.3694 5.36792 25.932 5.85943 25.5741 6.40719C25.2535 6.89364 24.8919 7.35184 24.4932 7.77679C25.2445 7.08559 25.8934 6.35039 26.3742 5.60719ZM71.1507 57.7016C69.8146 58.3296 68.4328 59.4208 67.2207 60.7216C68.2232 59.7784 69.3009 58.9952 70.3506 58.5016C71.2187 58.0936 71.974 57.4864 72.5988 56.7592C72.16 57.1361 71.673 57.453 71.1507 57.7016ZM56.0932 71.208C52.7761 70.7552 47.978 72.172 45.4353 74.364C42.8911 76.5496 38.7267 76.5496 36.1832 74.364C33.635 72.1704 28.8385 70.7544 25.5245 71.208C22.2106 71.6616 18.7039 69.3912 17.7382 66.1624C16.7725 62.9336 13.4969 59.1248 10.4646 57.7016C7.42913 56.272 5.69616 52.456 6.61785 49.216C7.53794 45.9688 6.82587 40.9816 5.03529 38.1296C3.38792 35.5072 3.76796 31.7712 5.80337 29.4552L5.55374 29.6928C3.04069 31.924 2.44783 36.084 4.23521 38.9296C6.02579 41.7816 6.73786 46.7688 5.81777 50.016C4.89688 53.256 6.62905 57.072 9.66455 58.5016C12.6969 59.9248 15.9724 63.7344 16.9381 66.9624C17.9038 70.1896 21.4105 72.4608 24.7245 72.008C28.0384 71.5552 32.8357 72.972 35.3831 75.164C37.9274 77.3496 42.0918 77.3496 44.6353 75.164C47.1795 72.9704 51.976 71.5544 55.2931 72.008C57.6702 72.3312 60.1368 71.2552 61.7042 69.4328C60.1648 70.7576 58.0966 71.4816 56.0932 71.208Z" fill="#854D9B"/>
</svg>
