<svg width="60" height="67" viewBox="0 0 60 67" fill="none" xmlns="http://www.w3.org/2000/svg">
<path d="M13.3333 66.6667H46.6667C47.4688 66.6668 48.2441 66.3776 48.8502 65.8523C49.4564 65.327 49.8528 64.6007 49.9667 63.8067L56.2233 20H60V13.3333H55.3933L49.6467 1.84333C49.3706 1.28924 48.9455 0.823161 48.419 0.497511C47.8926 0.171862 47.2857 -0.000435335 46.6667 8.26038e-07H13.3333C12.07 8.26038e-07 10.9167 0.713334 10.35 1.84333L4.60667 13.3333H0V20H3.77667L10.0333 63.8067C10.1472 64.6007 10.5436 65.327 11.1498 65.8523C11.7559 66.3776 12.5312 66.6668 13.3333 66.6667ZM48.06 30H11.94L10.51 20H49.4867L48.06 30ZM16.2233 60L14.7933 50H45.2033L43.7733 60H16.2233ZM15.3933 6.66667H44.6067L47.94 13.3333H12.06L15.3933 6.66667Z" fill="#BA8443"/>
</svg>
