<svg width="60" height="66" viewBox="0 0 60 66" fill="none" xmlns="http://www.w3.org/2000/svg">
<path d="M50.8983 5.13731C47.6326 1.6664 41.7292 0.178345 34.1771 0.178345H12.2589C11.5116 0.178371 10.789 0.426946 10.2207 0.879381C9.65247 1.33182 9.27595 1.95843 9.15884 2.64657L0.0324721 56.6195C-0.14893 57.6838 0.734879 58.6476 1.89173 58.6476H15.4233L18.8217 38.548L18.7162 39.1774C18.9583 37.7566 20.2614 36.7087 21.8045 36.7087H28.2347C40.8668 36.7087 50.7579 31.9243 53.6472 18.0842C53.733 17.6749 53.8073 17.2765 53.8715 16.8873C53.5068 16.7072 53.5068 16.7072 53.8715 16.8873C54.7319 11.7718 53.8656 8.28979 50.8983 5.13731Z" fill="#27346A"/>
<path d="M23.9994 15.0445C24.3693 14.8803 24.7739 14.7951 25.1837 14.7954H42.3672C44.402 14.7954 46.2999 14.9189 48.0343 15.1791C48.5196 15.2513 49.0024 15.3374 49.482 15.4375C50.1617 15.5773 50.8336 15.7485 51.4952 15.9504C52.3479 16.2159 53.1419 16.5251 53.8717 16.8873C54.7319 11.7699 53.8656 8.28979 50.8983 5.13731C47.6307 1.6664 41.7293 0.178345 34.1771 0.178345H12.257C10.7137 0.178345 9.40071 1.22604 9.15884 2.64657L0.0324734 56.6175C-0.148929 57.6836 0.734881 58.646 1.88986 58.646H15.4233L22.4739 16.9546C22.5432 16.5448 22.7183 16.1568 22.984 15.8241C23.2497 15.4914 23.5982 15.2238 23.9994 15.0445Z" fill="#27346A"/>
<path d="M53.6474 18.0842C50.7581 31.9224 40.8672 36.7087 28.2349 36.7087H21.8028C20.2597 36.7087 18.9564 37.7566 18.7166 39.1773L14.4888 64.1688C14.3309 65.1003 15.1033 65.9443 16.1139 65.9443H27.5207C28.1742 65.9441 28.8061 65.7266 29.3028 65.3308C29.7996 64.935 30.1286 64.3869 30.2308 63.7851L30.3418 63.2431L32.4917 50.5379L32.6302 49.8357C32.7323 49.2339 33.0613 48.6859 33.5581 48.2901C34.0548 47.8943 34.6866 47.6767 35.34 47.6765H37.0472C48.097 47.6765 56.7493 43.4905 59.2776 31.3841C60.333 26.3248 59.7869 22.1008 56.9951 19.1339C56.1483 18.2352 55.0967 17.4931 53.8717 16.8873C53.8053 17.2785 53.7334 17.6749 53.6474 18.0842Z" fill="#2790C3"/>
<path d="M50.8478 15.7631C50.3973 15.6404 49.9425 15.5318 49.4842 15.4374C49.0044 15.3391 48.5216 15.2535 48.0365 15.1809C46.3003 14.9188 44.4038 14.7951 42.3671 14.7951H25.1857C24.7757 14.7943 24.3707 14.8801 24.0014 15.0462C23.5998 15.225 23.2509 15.4924 22.9851 15.8252C22.7192 16.1581 22.5444 16.5463 22.4757 16.9563L18.8237 38.5479L18.7183 39.1773C18.9585 37.7566 20.2616 36.7087 21.8049 36.7087H28.237C40.869 36.7087 50.7599 31.9243 53.6492 18.0842C53.7352 17.6749 53.8074 17.2782 53.8738 16.8873C53.1421 16.5271 52.3501 16.2159 51.4973 15.9521C51.282 15.8856 51.0656 15.8226 50.848 15.7631" fill="#1F264F"/>
</svg>
