<svg width="80" height="80" viewBox="0 0 80 80" fill="none" xmlns="http://www.w3.org/2000/svg">
<path d="M43.175 6.61876C35.1312 5.20001 30.2562 9.96251 29.5687 17.6938C29.4187 19.3688 28.0812 20.8438 27.0625 22.1625C23.6437 26.6063 20.1375 31.2563 16.55 35.5938C13.4375 39.35 10.7687 43.425 8.03123 47.45C2.33748 55.8625 0.0874817 62.375 3.26248 72.3688C3.95623 74.5687 5.54373 78.1625 8.39998 78.025C11.2562 77.8937 11.7062 74.2625 12.225 72.1937C12.4875 71.1312 12.8 69.8688 13.675 69.1063C14.1437 68.7 14.5375 68.8313 15.0625 68.6875C15.5937 68.5438 15.6375 68.4375 16.0562 68.1313C17.225 67.275 17.5437 67.6875 18.4437 68.5687C19.7375 69.8375 21.8812 69.7375 23.5187 69.4125C24.475 69.225 24.7875 69.0187 25.3562 68.3063C25.9687 67.5312 26.9062 67.025 27.45 66.2C28.0125 65.35 28.0312 65.05 29.0687 64.7062C31.2812 63.975 31.8875 65.5125 33.4687 66.5938C35.0187 67.6563 37.125 68.0688 38.9562 67.6438C39.8437 67.4375 40.1 67.1937 40.5375 66.4688C41.0562 65.6 41.7312 65.0125 42.3562 64.225C43.0437 63.35 43.5937 62.8187 44.5375 62.225C45.3937 61.6875 46.1625 61.45 47.1312 61.1438C48.9062 60.5813 50.6187 59.8 52.3812 59.2125C54.675 58.4438 56.9687 57.675 59.2625 56.9C63.775 55.3625 68.275 53.7938 72.7375 52.1375C75.2875 51.1938 78.1437 50.4438 78.8062 47.4688C79.0312 46.4625 79.2 45.4438 79.3062 44.4188C80.475 33.2688 73.8687 23.375 65.3437 16.725C61.0312 13.3625 56.1687 10.6625 51.0312 8.76251C49.0625 8.04376 46.2 7.15626 43.175 6.61876Z" fill="#FFE082"/>
<path d="M32.7437 50.9625C32.4812 50.9625 32.2312 50.95 31.975 50.9312C29.5125 50.6938 27.6 48.5063 27.5187 45.8313C27.475 44.2625 28.1937 42.8062 29.4937 41.8437C29.8187 41.6 30.3562 41.2437 30.9562 41.0187C30.8375 40.7375 30.7312 40.4188 30.6437 40.0688C30.4062 39.1063 30.4812 38.1687 30.8687 37.35C31.5125 35.9812 32.9 35.05 34.775 34.7C35.1687 34.6313 35.6 34.5938 36.0437 34.5938C36.8687 34.5938 38.925 34.7438 40.1687 36.125C40.5937 36.5938 40.8687 37.15 40.9875 37.7688C43.0312 37.2875 45.3062 38.2187 46.3812 40.0125C47.675 42.175 47.4812 45.4375 45.125 46.8563C44.075 47.4875 42.9375 47.775 41.5312 47.775C41.3 47.775 41.1437 47.7875 40.975 47.8C40.3375 47.825 39.7125 47.825 39.2187 47.7125C39.0392 47.67 38.8652 47.6071 38.7 47.525C38.6875 47.55 38.675 47.5688 38.6625 47.5938C38.0937 48.5 37.3562 49.5063 35.8875 50.075C35.7625 50.125 35.6437 50.1937 35.5312 50.2625C35.25 50.4187 34.9625 50.575 34.65 50.675C34.0812 50.8688 33.4437 50.9625 32.7437 50.9625ZM32.0062 43.6938C31.9812 43.7125 31.6062 43.8938 31.225 44.175C30.6875 44.5688 30.4062 45.1313 30.4187 45.7563C30.4437 46.8063 31.1437 47.9375 32.25 48.05C32.775 48.0937 33.3312 48.0687 33.725 47.9375C33.8625 47.8937 33.9812 47.8125 34.1062 47.7438C34.3437 47.6063 34.5812 47.4812 34.8375 47.3812C35.375 47.175 35.7 46.8625 36.2125 46.0437C36.2312 46.0062 36.25 45.9563 36.275 45.9C36.4125 45.5875 36.6437 45.0563 37.1937 44.6938C37.5687 44.4438 37.9687 44.3125 38.3937 44.3125C39.05 44.3125 39.5312 44.6312 39.8125 44.8125C39.8625 44.8437 39.9125 44.8875 39.9687 44.9062C39.9875 44.9062 40.1187 44.9188 40.2812 44.9188C40.4562 44.9188 40.6437 44.9063 40.825 44.8938C41.0437 44.8813 41.2625 44.8688 41.4625 44.8688C42.4062 44.8688 43.0375 44.7188 43.6312 44.3625C44.4375 43.875 44.4375 42.4 43.9 41.5C43.4 40.6625 42.225 40.3 41.3125 40.6938L41.2625 40.7438C40.9062 40.9938 40.2875 41.4 39.5562 41.3062C39.3272 41.2753 39.1067 41.1984 38.9081 41.0803C38.7094 40.9622 38.5366 40.8052 38.4 40.6187C37.9187 39.9625 38.05 39.2125 38.125 38.7625L38.1437 38.6063C38.1812 38.2438 38.0687 38.1125 38.0125 38.0563C37.7062 37.7188 36.9125 37.4875 36.0375 37.4875C35.7687 37.4875 35.5125 37.5125 35.2937 37.55C34.3875 37.7125 33.7125 38.1 33.4875 38.5813C33.3625 38.8438 33.4 39.1563 33.4562 39.375C33.5687 39.8438 33.675 39.9875 33.6812 39.9938C33.9312 40.1438 34.4 40.4562 34.6562 41.1062C35.0187 42.0125 34.8 42.6438 34.55 43.0125C34.35 43.3063 33.8812 43.7938 32.95 43.7938C32.7187 43.7938 32.4437 43.7625 32.1937 43.7187C32.125 43.7125 32.0625 43.7 32.0062 43.6938Z" fill="#757F3F"/>
<path d="M10.4688 43.4063C10.625 41.9063 11.575 40.3688 13.6813 39.0125C15.2 38.0375 16.7688 37.6875 18.5625 37.9375C22.65 38.5 26.4438 40.6938 25.2688 45.5188C24.7813 47.525 22.2125 49.1 20.4063 49.7438C18.2063 50.5313 15.7563 50.4375 13.65 49.4188C12.7 48.9625 11.45 48.1 10.8938 47.1875C10.3125 46.2313 10.35 44.4938 10.4688 43.4063Z" fill="#ED6C30"/>
<path d="M21.75 41.7875L20.8437 43.2312L23.0187 43.4125L23.7437 41.7875L22.6562 40.7L21.75 41.7875Z" fill="white"/>
<path d="M15.3313 43.5938L13.625 43.6938L14.7375 45.5688L16.4875 45.2125L16.7438 43.7L15.3313 43.5938Z" fill="white"/>
<path d="M18.6125 46.7438L16.875 46.7375L18.1375 48.8188L19.9063 48.5563L20.0625 46.9501L18.6125 46.7438Z" fill="white"/>
<path d="M23.4562 44.125L23.1875 45.075L24.3187 45.1188L24.3625 44.2125L23.4562 44.125Z" fill="white"/>
<path d="M19.3063 44.0875C19.3063 44.0875 18.4938 44.8563 18.625 44.9C18.7625 44.9438 19.8938 45.0813 19.8938 45.0813L20.3438 44.3563L19.3063 44.0875Z" fill="white"/>
<path d="M13.6125 46.1625C13.6125 46.1625 12.575 47.25 12.8438 47.25C13.1125 47.25 13.8875 47.1125 13.8875 47.1125L14.3375 46.3875L13.6125 46.1625Z" fill="white"/>
<path d="M18.5625 39.2688C18.5625 39.2688 16.675 41.2375 17.1688 41.2375C17.6625 41.2375 19.0563 40.9938 19.0563 40.9938L19.875 39.6813L18.5625 39.2688Z" fill="white"/>
<path d="M25.6562 25.8125C25.5625 24.3 26.25 22.6312 28.1062 20.9437C29.4437 19.7312 30.9375 19.1312 32.7437 19.0812C36.8625 18.9687 40.9687 20.5062 40.6062 25.4625C40.4625 27.525 38.1812 29.5 36.5062 30.4312C34.4687 31.5625 32.0375 31.8812 29.7875 31.225C28.775 30.925 27.4 30.2875 26.7062 29.475C25.975 28.625 25.7312 26.9 25.6562 25.8125Z" fill="#ED6C30"/>
<path d="M33.475 22.7187L32.5687 24.1687L34.7437 24.35L35.4687 22.7187L34.3812 21.6312L33.475 22.7187Z" fill="white"/>
<path d="M30.4937 25.4688L28.7875 25.575L29.9 27.4438L31.6437 27.0937L31.9062 25.575L30.4937 25.4688Z" fill="white"/>
<path d="M36.2625 26.6062L34.5187 26.6L35.7875 28.6875L37.55 28.425L37.7125 26.8187L36.2625 26.6062Z" fill="white"/>
<path d="M30.1625 29.6813L31.0687 29.0938L31.6562 29.6375L31.3375 30.1312L30.6562 30.2687L30.1625 29.6813Z" fill="white"/>
<path d="M37.3125 24.7L37.0438 25.65L38.175 25.6938L38.2188 24.7938L37.3125 24.7Z" fill="white"/>
<path d="M37.9 21.35C37.9 21.35 37.0875 22.1187 37.2188 22.1625C37.3563 22.2062 38.4875 22.3437 38.4875 22.3437L38.9375 21.6187L37.9 21.35Z" fill="white"/>
<path d="M31.0187 21.5312C31.0187 21.5312 29.975 22.6187 30.25 22.6187C30.5187 22.6187 31.2937 22.4813 31.2937 22.4813L31.7437 21.7563L31.0187 21.5312Z" fill="white"/>
<path d="M26.8125 26.9187L26.4062 27.6437L27.0375 28.325C27.0375 28.325 27.4438 27.825 27.4438 27.6437C27.4438 27.4625 27.2625 26.9187 27.2625 26.9187H26.8125Z" fill="white"/>
<path d="M47.4125 36.6437C47.5688 35.1437 48.5188 33.6062 50.625 32.2499C52.1438 31.2749 53.7125 30.9249 55.5 31.1749C59.5875 31.7374 63.3813 33.9312 62.2125 38.7562C61.725 40.7624 59.1563 42.3374 57.35 42.9749C55.15 43.7624 52.7 43.6687 50.5938 42.6499C49.6438 42.1937 48.3938 41.3312 47.8375 40.4187C47.2563 39.4687 47.2938 37.7312 47.4125 36.6437Z" fill="#ED6C30"/>
<path d="M52.9062 34.1812L53.1687 35.8687L54.9313 34.5812L54.4188 32.875L52.8812 32.7625L52.9062 34.1812Z" fill="white"/>
<path d="M52.45 38.2124L51.225 39.3999L53.2938 40.0937L54.3875 38.6812L53.5875 37.3687L52.45 38.2124Z" fill="white"/>
<path d="M57.5562 35.2999L56.2375 36.4374L58.5563 37.1874L59.7187 35.8312L58.7937 34.5125L57.5562 35.2999Z" fill="white"/>
<path d="M57.4001 39.8687L58.3063 39.2749L58.8938 39.8249L58.5813 40.3186L57.9001 40.4562L57.4001 39.8687Z" fill="white"/>
<path d="M52.825 41.0125C52.825 41.0125 52.0125 41.7812 52.1438 41.825C52.2813 41.8687 53.4125 42.0062 53.4125 42.0062L53.8625 41.2812L52.825 41.0125Z" fill="white"/>
<path d="M49.7875 35.325L49.3813 36.05L50.0125 36.7312C50.0125 36.7312 50.4188 36.2312 50.4188 36.05C50.4188 35.8687 50.2375 35.325 50.2375 35.325H49.7875Z" fill="white"/>
<path d="M33.8125 15.8437C35.625 15.1437 37.1875 16.0062 38.9813 16.6562C40.2625 17.125 41.5 17.7062 42.7313 18.2812C46.525 20.0625 50.3188 21.8375 54.1063 23.6187C55.9563 24.4875 57.8125 25.3625 59.45 26.5875C61.3813 28.0312 63.0563 29.6875 64.5813 31.5562C65.8063 33.05 67.0313 35.7062 66.7063 37.6187C66.525 38.2562 66.025 37.8812 65.9188 37.6562C64.3167 34.4535 61.9619 31.687 59.0563 29.5937C55.4563 27.0125 51.175 25.575 46.9313 24.2875C45.875 23.9625 44.7938 23.6437 43.8625 23.05C42.8188 22.3875 42.0125 21.425 41.075 20.6187C38.8625 18.7062 35.9 17.6812 32.975 17.8187C32.3563 17.875 32.6938 16.325 33.8125 15.8437Z" fill="#DDA450"/>
<path d="M78.6438 37.1875C77.5563 35.3875 75.6875 34.4625 73.6375 34.9313C71.7125 35.375 69.3938 37.5188 68.4875 39.2813C67.5813 41.0375 67.075 44.1 65.3812 45.1188C63.425 46.3063 60.8687 45.9438 58.7937 46.9063C57.4312 47.5438 55.8562 48.4375 54.5562 49.2C52.6562 50.3188 50.8937 50.7688 48.7187 51.1438C46.5437 51.5188 43.775 52.2313 42.4437 53.9937C41.9625 54.6375 41.6375 55.3875 41.1375 56.0187C39.1875 58.5062 36.875 57 33.7562 56.475C32.7625 56.3062 31.5 56.2 30.5312 56.475C29.5062 56.7625 27.5125 58.25 26.5687 58.75C24.2062 60.0125 21.5187 58.85 19.0625 59.9188C15.8187 61.3312 14.1375 64.9625 11.2062 66.95C9.53749 68.0812 7.42499 68.6312 5.46249 68.175C3.98124 67.8312 2.62499 66.8625 1.86874 65.5562C2.02499 67.6687 2.46874 69.9125 3.24999 72.3687C3.94374 74.5687 5.53124 78.1625 8.38749 78.025C11.2437 77.8937 11.6937 74.2625 12.2125 72.1937C12.475 71.1312 12.7875 69.8687 13.6625 69.1062C14.1312 68.7 14.525 68.8312 15.05 68.6875C15.5812 68.5437 15.625 68.4375 16.0437 68.1312C17.2125 67.275 17.5312 67.6875 18.4312 68.5687C19.725 69.8375 21.8687 69.7375 23.5062 69.4125C24.4625 69.225 24.775 69.0187 25.3437 68.3062C25.9562 67.5312 26.8937 67.025 27.4375 66.2C28 65.35 28.0187 65.05 29.0562 64.7062C31.2687 63.975 31.875 65.5125 33.4562 66.5938C35.0062 67.6562 37.1125 68.0687 38.9437 67.6437C39.8312 67.4375 40.0875 67.1937 40.525 66.4687C41.0437 65.6 41.7187 65.0125 42.3437 64.225C43.0312 63.35 43.5812 62.8187 44.525 62.225C45.3812 61.6875 46.15 61.45 47.1187 61.1437C48.8937 60.5812 50.6062 59.8 52.3687 59.2125C54.6625 58.4437 56.9562 57.675 59.25 56.9C63.7625 55.3625 68.2625 53.7938 72.725 52.1375C75.275 51.1938 78.1312 50.4437 78.7938 47.4688C79.0188 46.4625 79.1875 45.4438 79.2938 44.4188C79.3688 43.7 79.4125 42.9813 79.425 42.275C79.4313 40.7438 79.475 38.5563 78.6438 37.1875Z" fill="#DDA450"/>
</svg>
