<svg width="35" height="45" viewBox="0 0 35 45" fill="none" xmlns="http://www.w3.org/2000/svg">
<path d="M14 0C13.0865 0 12.145 0.346875 11.4835 1.05563C10.8238 1.7625 10.5 2.77125 10.5 3.75V5.625H0V9.375H1.75V39.375C1.75 42.4594 4.12125 45 7 45H28C30.8787 45 33.25 42.4594 33.25 39.375V9.375H35V5.625H24.5V3.75C24.5 2.77125 24.1763 1.7625 23.5148 1.05375C22.855 0.34875 21.9153 0 21 0H14ZM14 3.75H21V5.625H14V3.75ZM5.25 9.375H29.75V39.375C29.75 40.4156 28.9713 41.25 28 41.25H7C6.02875 41.25 5.25 40.4156 5.25 39.375V9.375ZM8.75 15V35.625H12.25V15H8.75ZM15.75 15V35.625H19.25V15H15.75ZM22.75 15V35.625H26.25V15H22.75Z" fill="#FF4445"/>
</svg>
